<svg width="10" height="18" viewBox="0 0 10 18" fill="none" xmlns="http://www.w3.org/2000/svg">
<path d="M4.5681 14.1829L6.72766 8.99998H5.43192V5.5447L3.27237 10.7276H4.5681V14.1829ZM1.32877 17.6382C1.14521 17.6382 0.991344 17.5761 0.86717 17.4519C0.742995 17.3278 0.680908 17.1739 0.680908 16.9903V2.39175C0.680908 2.20819 0.742995 2.05432 0.86717 1.93015C0.991344 1.80597 1.14521 1.74388 1.32877 1.74388H3.27237V0.361771H6.72766V1.74388H8.67125C8.85482 1.74388 9.00868 1.80597 9.13286 1.93015C9.25703 2.05432 9.31912 2.20819 9.31912 2.39175V16.9903C9.31912 17.1739 9.25703 17.3278 9.13286 17.4519C9.00868 17.5761 8.85482 17.6382 8.67125 17.6382H1.32877ZM1.97664 16.3425H8.02339V3.03962H1.97664V16.3425Z" fill="#ADB0EC"/>
</svg>
