<svg width="20" height="16" viewBox="0 0 20 16" fill="none" xmlns="http://www.w3.org/2000/svg">
<path d="M1.36181 5.62444V1.52129C1.36181 1.17576 1.49138 0.873421 1.75053 0.614275C2.00967 0.355129 2.31201 0.225555 2.65754 0.225555H17.3425C17.688 0.225555 17.9904 0.355129 18.2495 0.614275C18.5087 0.873421 18.6382 1.17576 18.6382 1.52129V5.62444H17.3425V1.52129H2.65754V5.62444H1.36181ZM2.65754 13.1829C2.31201 13.1829 2.00967 13.0533 1.75053 12.7942C1.49138 12.535 1.36181 12.2327 1.36181 11.8871V6.92017H2.65754V11.8871H17.3425V6.92017H18.6382V11.8871C18.6382 12.2327 18.5087 12.535 18.2495 12.7942C17.9904 13.0533 17.688 13.1829 17.3425 13.1829H2.65754ZM0.497986 15.7743V14.4786H19.5021V15.7743H0.497986ZM1.36181 6.92017V5.62444H6.54473C6.66223 5.62444 6.77439 5.65323 6.88121 5.71082C6.98803 5.76841 7.07022 5.85479 7.12781 5.96997L8.31557 8.38867L11.1446 3.4001C11.2022 3.28492 11.285 3.20214 11.3929 3.15175C11.5009 3.10136 11.6133 3.07617 11.7302 3.07617C11.8471 3.07617 11.9587 3.10136 12.065 3.15175C12.1712 3.20214 12.2532 3.28492 12.3107 3.4001L13.4025 5.62444H18.6382V6.92017H13.0018C12.883 6.92017 12.7696 6.89138 12.6617 6.83379C12.5537 6.7762 12.4727 6.68982 12.4187 6.57464L11.6845 5.08455L8.85546 10.0299C8.80186 10.1451 8.72145 10.2315 8.61423 10.2891C8.50702 10.3467 8.39444 10.3755 8.2765 10.3755C8.15858 10.3755 8.04562 10.3467 7.93765 10.2891C7.82967 10.2315 7.74688 10.1451 7.6893 10.0299L6.13442 6.92017H1.36181Z" fill="#ADB0EC"/>
</svg>
