<svg width="38" height="38" viewBox="0 0 38 38" fill="none" xmlns="http://www.w3.org/2000/svg">
<path d="M5.19032 32.6302C3.56834 30.9559 2.29778 29.0212 1.37867 26.826C0.459557 24.6308 0 22.3798 0 20.073C0 17.3569 0.474385 14.8733 1.42315 12.6224C2.37192 10.3714 3.79507 8.29705 5.69261 6.39951C6.99483 5.09728 8.61332 3.99975 10.5481 3.10679C12.4828 2.21383 14.7617 1.51618 17.3848 1.01389C20.0078 0.511604 22.9751 0.195324 26.2864 0.0651013C29.5978 -0.0651216 33.2813 2.89977e-05 37.3368 0.260475C37.6344 4.27878 37.7368 7.95289 37.6437 11.2829C37.5507 14.6129 37.2531 17.6033 36.7508 20.2543C36.2485 22.9053 35.5416 25.2226 34.63 27.2062C33.7184 29.1897 32.5929 30.8489 31.2535 32.1837C29.356 34.0812 27.3096 35.5137 25.1144 36.4811C22.9192 37.4484 20.5752 37.9321 18.0824 37.9321C15.5151 37.9321 13.1618 37.4949 11.0224 36.6206C8.88307 35.7462 6.93903 34.4161 5.19032 32.6302ZM10.9387 32.6302C11.8689 33.2627 12.9479 33.7464 14.1757 34.0812C15.4035 34.4161 16.7043 34.5835 18.0781 34.5835C20.0529 34.5835 21.9705 34.1742 23.8308 33.3557C25.6911 32.5371 27.384 31.3465 28.9095 29.7839C29.9141 28.7793 30.7698 27.4678 31.4767 25.8493C32.1837 24.2308 32.7604 22.3147 33.2069 20.1009C33.6533 17.8871 33.951 15.385 34.0998 12.5945C34.2486 9.80397 34.2486 6.73437 34.0998 3.38578C30.6024 3.31137 27.4677 3.35788 24.6959 3.52531C21.924 3.69274 19.4776 3.99973 17.3569 4.4462C15.2361 4.89268 13.413 5.46009 11.8875 6.14841C10.362 6.83674 9.11561 7.68314 8.14824 8.68772C6.58556 10.2876 5.39495 11.9805 4.57641 13.7665C3.75786 15.5524 3.34859 17.3755 3.34859 19.2358C3.34859 21.0217 3.72996 22.8914 4.49269 24.8447C5.25543 26.798 6.19489 28.37 7.31109 29.5606C7.31109 29.5606 8.62454 31.0565 10.9387 32.6302Z" fill="white"/>
<path d="M15.9573 27.9978C15.475 27.9978 15.1703 27.4794 15.405 27.0581L18.0624 22.2873C18.3727 21.7301 18.0183 21.0363 17.385 20.9611L13.0989 20.4524C12.3382 20.3621 12.034 19.4208 12.598 18.9024L22.0723 10.1938C22.1889 10.0865 22.3416 10.027 22.5 10.027C22.9823 10.027 23.287 10.5454 23.0523 10.9668L20.3949 15.7376C20.0846 16.2947 20.439 16.9886 21.0723 17.0638L25.3583 17.5725C26.1191 17.6628 26.4233 18.6041 25.8593 19.1225L16.385 27.8311C16.2684 27.9383 16.1157 27.9978 15.9573 27.9978Z" fill="white"/>
</svg>
