<svg width="3" height="16" viewBox="0 0 3 16" fill="none" xmlns="http://www.w3.org/2000/svg">
<path d="M1.20872 15.976C0.886155 15.976 0.611974 15.8631 0.386178 15.6373C0.160383 15.4115 0.0474854 15.1374 0.0474854 14.8148C0.0474854 14.4922 0.160383 14.218 0.386178 13.9922C0.611974 13.7665 0.886155 13.6536 1.20872 13.6536C1.53129 13.6536 1.80547 13.7665 2.03126 13.9922C2.25706 14.218 2.36996 14.4922 2.36996 14.8148C2.36996 15.1374 2.25706 15.4115 2.03126 15.6373C1.80547 15.8631 1.53129 15.976 1.20872 15.976ZM1.20872 9.39569C0.886155 9.39569 0.611974 9.28279 0.386178 9.057C0.160383 8.8312 0.0474854 8.55702 0.0474854 8.23446C0.0474854 7.91189 0.160383 7.63771 0.386178 7.41192C0.611974 7.18612 0.886155 7.07322 1.20872 7.07322C1.53129 7.07322 1.80547 7.18612 2.03126 7.41192C2.25706 7.63771 2.36996 7.91189 2.36996 8.23446C2.36996 8.55702 2.25706 8.8312 2.03126 9.057C1.80547 9.28279 1.53129 9.39569 1.20872 9.39569ZM1.20872 2.81536C0.886155 2.81536 0.611974 2.70246 0.386178 2.47667C0.160383 2.25087 0.0474854 1.97669 0.0474854 1.65412C0.0474854 1.33156 0.160383 1.05738 0.386178 0.831583C0.611974 0.605787 0.886155 0.492889 1.20872 0.492889C1.53129 0.492889 1.80547 0.605787 2.03126 0.831583C2.25706 1.05738 2.36996 1.33156 2.36996 1.65412C2.36996 1.97669 2.25706 2.25087 2.03126 2.47667C1.80547 2.70246 1.53129 2.81536 1.20872 2.81536Z" fill="#272727"/>
</svg>
