<svg width="18" height="18" viewBox="0 0 18 18" fill="none" xmlns="http://www.w3.org/2000/svg">
<path d="M8.61131 15.4354L12.2825 7.66098H9.47513V2.47806L5.80389 10.2524H8.61131V15.4354ZM9.00003 17.6381C7.77628 17.6381 6.63892 17.4186 5.58793 16.9795C4.53695 16.5403 3.62274 15.9321 2.8453 15.1546C2.06786 14.3772 1.45959 13.463 1.02048 12.412C0.581371 11.361 0.361816 10.2237 0.361816 8.99991C0.361816 7.79056 0.581371 6.66039 1.02048 5.60941C1.45959 4.55843 2.06786 3.64421 2.8453 2.86678C3.62274 2.08934 4.53695 1.47746 5.58793 1.03116C6.63892 0.584848 7.77628 0.361694 9.00003 0.361694C10.2094 0.361694 11.3395 0.584848 12.3905 1.03116C13.4415 1.47746 14.3557 2.08934 15.1332 2.86678C15.9106 3.64421 16.5225 4.55843 16.9688 5.60941C17.4151 6.66039 17.6382 7.79056 17.6382 8.99991C17.6382 10.2237 17.4151 11.361 16.9688 12.412C16.5225 13.463 15.9106 14.3772 15.1332 15.1546C14.3557 15.9321 13.4415 16.5403 12.3905 16.9795C11.3395 17.4186 10.2094 17.6381 9.00003 17.6381ZM9.00003 16.3424C11.0876 16.3424 12.8332 15.6405 14.2369 14.2368C15.6407 12.8331 16.3425 11.0875 16.3425 8.99991C16.3425 6.91234 15.6407 5.1667 14.2369 3.76299C12.8332 2.35928 11.0876 1.65743 9.00003 1.65743C6.91246 1.65743 5.16682 2.35928 3.76311 3.76299C2.3594 5.1667 1.65755 6.91234 1.65755 8.99991C1.65755 11.0875 2.3594 12.8331 3.76311 14.2368C5.16682 15.6405 6.91246 16.3424 9.00003 16.3424Z" fill="#ADB0EC"/>
</svg>
