<svg width="18" height="18" viewBox="0 0 18 18" fill="none" xmlns="http://www.w3.org/2000/svg">
<path d="M0.361816 17.6381L2.08946 8.99994H15.9106L17.6382 17.6381H0.361816ZM1.22564 1.65746V0.361725H3.8171V1.65746H1.22564ZM1.95989 16.3424H8.35216V13.9669H2.43499L1.95989 16.3424ZM3.68753 6.40847L2.75892 5.50146L4.59454 3.66584L5.52315 4.57285L3.68753 6.40847ZM2.69413 12.6712H8.35216V10.2957H3.16924L2.69413 12.6712ZM9.00003 4.24892C7.93465 4.24892 7.03483 3.871 6.30059 3.11515C5.56634 2.35931 5.17042 1.4415 5.11283 0.361725H6.40856C6.45176 1.08158 6.7181 1.69345 7.2076 2.19734C7.6971 2.70124 8.29457 2.95319 9.00003 2.95319C9.70548 2.95319 10.303 2.70124 10.7925 2.19734C11.282 1.69345 11.5483 1.08158 11.5915 0.361725H12.8872C12.8296 1.4415 12.4337 2.35931 11.6995 3.11515C10.9652 3.871 10.0654 4.24892 9.00003 4.24892ZM8.35216 8.13612V5.54465H9.64789V8.13612H8.35216ZM9.64789 16.3424H16.0402L15.5651 13.9669H9.64789V16.3424ZM9.64789 12.6712H15.3059L14.8308 10.2957H9.64789V12.6712ZM14.3125 6.38688L12.4769 4.55126L13.3839 3.64425L15.2411 5.45827L14.3125 6.38688ZM14.183 1.65746V0.361725H16.7744V1.65746H14.183Z" fill="#ADB0EC"/>
</svg>
