<svg width="20" height="20" viewBox="0 0 20 20" fill="none" xmlns="http://www.w3.org/2000/svg">
<path d="M8.92024 19.502C8.92024 19.1421 9.04712 18.8362 9.30086 18.5842C9.55461 18.3323 9.85965 18.2063 10.216 18.2063V13.3473C10 13.2897 9.79846 13.2141 9.6113 13.1205C9.42414 13.027 9.25137 12.901 9.09301 12.7426L7.1926 13.9304C6.99104 14.0599 6.77149 14.1391 6.53394 14.1679C6.29639 14.1967 6.05524 14.1751 5.81049 14.1031L1.92329 13.0018C1.50578 12.8866 1.16385 12.6526 0.897503 12.2999C0.631158 11.9472 0.497986 11.5477 0.497986 11.1014C0.497986 10.5543 0.688746 10.09 1.07027 9.70844C1.45179 9.32692 1.91609 9.13616 2.46318 9.13616H8.96343C9.1074 8.9778 9.26577 8.84102 9.43854 8.72585C9.6113 8.61067 9.79846 8.51709 10 8.44511V5.48652C10 5.24177 10.0468 5.01142 10.1404 4.79546C10.234 4.57951 10.3671 4.39234 10.5399 4.23398L13.4985 1.46975C13.8296 1.15301 14.2147 0.969453 14.6539 0.919063C15.093 0.868674 15.4997 0.965853 15.874 1.2106C16.3347 1.49779 16.6334 1.90346 16.7702 2.4276C16.907 2.95174 16.8314 3.44357 16.5435 3.90309L13.0882 9.56807C13.2034 9.75523 13.2861 9.94959 13.3365 10.1512C13.3869 10.3527 13.4193 10.5615 13.4337 10.7774L15.766 11.3389C16.0108 11.3965 16.2231 11.4973 16.4031 11.6412C16.5831 11.7852 16.7306 11.958 16.8458 12.1595L18.811 15.7012C19.027 16.0899 19.1061 16.5002 19.0485 16.9321C18.991 17.3641 18.8038 17.7384 18.4871 18.0551C18.0983 18.4438 17.634 18.6382 17.0942 18.6382C16.5543 18.6382 16.09 18.4438 15.7012 18.0551L11.5117 13.8656V18.2063C11.8716 18.2063 12.1776 18.3332 12.4295 18.5869C12.6815 18.8407 12.8074 19.1457 12.8074 19.502H8.92024ZM3.08945 3.73728V2.44155H8.27238V3.73728H3.08945ZM11.2958 5.29216V8.33713C11.4541 8.36592 11.6089 8.40911 11.7601 8.4667C11.9112 8.52429 12.0516 8.58908 12.1812 8.66106L15.4421 3.21899C15.5429 3.06062 15.5681 2.88786 15.5177 2.70069C15.4673 2.51353 15.3557 2.38036 15.1829 2.30118C15.0534 2.22199 14.913 2.1932 14.7618 2.21479C14.6107 2.23639 14.4847 2.29758 14.3839 2.39836L11.2958 5.29216ZM0.497986 7.19256V5.89683H4.81709V7.19256H0.497986ZM10.8638 12.1595C11.231 12.1595 11.5387 12.0354 11.787 11.787C12.0354 11.5387 12.1596 11.2309 12.1596 10.8638C12.1596 10.4967 12.0354 10.1889 11.787 9.9406C11.5387 9.69225 11.231 9.56807 10.8638 9.56807C10.4967 9.56807 10.189 9.69225 9.94063 9.9406C9.69228 10.1889 9.56811 10.4967 9.56811 10.8638C9.56811 11.2309 9.69228 11.5387 9.94063 11.787C10.189 12.0354 10.4967 12.1595 10.8638 12.1595ZM6.37197 12.937L8.42355 11.6844C8.35156 11.4829 8.31197 11.2741 8.30477 11.0582C8.29757 10.8422 8.30837 10.6335 8.33716 10.4319H2.46318C2.27602 10.4319 2.11765 10.4967 1.98808 10.6263C1.8585 10.7558 1.79372 10.9166 1.79372 11.1085C1.79372 11.2621 1.83691 11.3965 1.92329 11.5117C2.00967 11.6268 2.12485 11.706 2.26882 11.7492L6.37197 12.937ZM15.6365 12.613L13.153 12.0516C13.0666 12.2243 12.9586 12.3863 12.829 12.5375C12.6995 12.6886 12.5555 12.8218 12.3971 12.937L16.6298 17.1481C16.7594 17.2777 16.9178 17.3425 17.1049 17.3425C17.2921 17.3425 17.4505 17.2777 17.5801 17.1481C17.6988 17.0272 17.7681 16.8962 17.7879 16.7551C17.8077 16.614 17.7816 16.4786 17.7096 16.3491L15.6365 12.613ZM2.22563 17.5584V16.2627H6.54473V17.5584H2.22563Z" fill="white"/>
</svg>
